<svg width="14" height="10" viewBox="0 0 14 10" fill="none" xmlns="http://www.w3.org/2000/svg">
<path d="M13.5882 0.341314C13.8417 0.569022 13.9896 0.883066 13.9995 1.2144C14.0093 1.54573 13.8803 1.86722 13.6408 2.10818L6.18566 9.60905C6.06483 9.7304 5.91963 9.82751 5.75865 9.89464C5.59766 9.96176 5.42414 9.99755 5.24836 9.99988C5.07257 10.0022 4.89807 9.97104 4.73517 9.9082C4.57228 9.84537 4.42429 9.75215 4.29994 9.63405L0.353097 5.88362C0.120706 5.64664 -0.00580865 5.33319 0.000204968 5.00932C0.00621859 4.68544 0.144292 4.37643 0.385335 4.14738C0.626379 3.91834 0.951572 3.78713 1.29241 3.78142C1.63324 3.77571 1.9631 3.89592 2.2125 4.11675L5.20333 6.95708L11.7288 0.39132C11.9684 0.150454 12.2989 0.00987823 12.6476 0.000500963C12.9963 -0.0088763 13.3346 0.113713 13.5882 0.341314Z" fill="white"/>
</svg>
