<svg width="24" height="24" viewBox="0 0 24 24" fill="none" xmlns="http://www.w3.org/2000/svg">
<path d="M20.0558 24L16.419 17.68C16.419 15.3733 14.9936 13.8933 13.2618 13.8933C12.0628 13.8933 11.0237 14.56 10.4908 15.5467C10.9305 15.2933 11.45 15.16 11.9962 15.16C13.728 15.16 15.1401 16.5733 15.1401 18.3067C15.1401 20.0533 13.7413 21.48 11.9962 21.48H16.3924V24H5.05558C4.73586 24 4.40282 23.88 4.16303 23.6267C3.92647 23.3897 3.79359 23.0683 3.79359 22.7333C3.79359 22.3983 3.92647 22.077 4.16303 21.84L4.82912 21.1733C4.37618 20.9733 4.00317 20.6667 3.63016 20.3467C3.33709 21.0133 2.671 21.48 1.89834 21.48C1.39487 21.48 0.91202 21.2798 0.556012 20.9235C0.200003 20.5672 0 20.0839 0 19.58C0 19.0761 0.200003 18.5928 0.556012 18.2365C0.91202 17.8802 1.39487 17.68 1.89834 17.68L2.52446 17.7867V15.16C2.52271 14.3296 2.68484 13.5069 3.00155 12.7394C3.31826 11.9718 3.78331 11.2744 4.37002 10.6872C4.95672 10.0999 5.65352 9.63449 6.42042 9.3175C7.18732 9.00051 8.00922 8.83824 8.83895 8.84H8.86559C11.6898 8.85333 13.8879 9.96 13.8879 8.21333C13.8879 6.97333 14.1543 6.48 14.6072 5.78667C13.6348 5.33333 12.5291 5.05333 11.3701 5.05333C10.664 5.05333 10.1045 4.49333 10.1045 3.78667C10.1045 3.21333 10.4775 2.73333 10.9971 2.57333L10.1045 2.52C9.41178 2.52 8.83895 1.96 8.83895 1.26667C8.83895 0.56 9.41178 0 10.1045 0H11.3701C14.1676 0 16.6188 1.53333 17.9377 3.8L18.3107 3.78667C19.2565 3.78667 20.1357 4.09333 20.8551 4.6L21.4546 5.10667C24.3454 7.70667 23.9857 9.46667 23.9857 9.48C23.9857 11.1867 22.5736 12.5867 20.8551 12.5867L20.2024 12.52V12.6267C20.2024 14.1067 19.5629 15.4267 18.5638 16.36L22.9733 24H20.0558ZM20.2024 6.32C19.4963 6.32 18.9368 6.88 18.9368 7.57333C18.9368 8.28 19.4963 8.84 20.2024 8.84C20.8951 8.84 21.4679 8.28 21.4679 7.57333C21.4679 6.88 20.8951 6.32 20.2024 6.32Z" fill="white"/>
</svg>
