<svg width="20" height="15" viewBox="0 0 20 15" fill="none" xmlns="http://www.w3.org/2000/svg">
<path d="M19.4117 0.511971C19.7738 0.853534 19.9851 1.3246 19.9992 1.82159C20.0133 2.31859 19.829 2.80083 19.4869 3.16228L8.83665 14.4136C8.66404 14.5956 8.45662 14.7413 8.22664 14.842C7.99665 14.9426 7.74878 14.9963 7.49765 14.9998C7.24652 15.0033 6.99724 14.9566 6.76453 14.8623C6.53182 14.7681 6.32041 14.6282 6.14277 14.4511L0.504424 8.82543C0.172438 8.46995 -0.00829807 7.99978 0.000292811 7.51397C0.00888369 7.02816 0.206131 6.56465 0.550479 6.22108C0.894827 5.8775 1.35939 5.6807 1.84629 5.67213C2.3332 5.66356 2.80443 5.84389 3.16071 6.17512L7.43333 10.4356L16.7554 0.58698C17.0977 0.225681 17.5699 0.0148173 18.068 0.000751445C18.5661 -0.0133144 19.0494 0.170569 19.4117 0.511971Z" fill="white"/>
</svg>
