<svg width="17" height="17" viewBox="0 0 17 17" fill="none" xmlns="http://www.w3.org/2000/svg">
<path d="M14.2062 17L11.6301 12.5233C11.6301 10.8894 10.6204 9.84111 9.39374 9.84111C8.54448 9.84111 7.80846 10.3133 7.43101 11.0122C7.7424 10.8328 8.11042 10.7383 8.4973 10.7383C9.72401 10.7383 10.7242 11.7394 10.7242 12.9672C10.7242 14.2044 9.73344 15.215 8.4973 15.215H11.6112V17H3.58104C3.35457 17 3.11867 16.915 2.94881 16.7356C2.78125 16.5677 2.68712 16.3401 2.68712 16.1028C2.68712 15.8655 2.78125 15.6379 2.94881 15.47L3.42062 14.9978C3.09979 14.8561 2.83558 14.6389 2.57137 14.4122C2.36377 14.8844 1.89196 15.215 1.34466 15.215C0.988033 15.215 0.646014 15.0732 0.393842 14.8208C0.141669 14.5684 0 14.2261 0 13.8692C0 13.5122 0.141669 13.1699 0.393842 12.9175C0.646014 12.6651 0.988033 12.5233 1.34466 12.5233L1.78816 12.5989V10.7383C1.78692 10.1501 1.90176 9.56741 2.1261 9.02372C2.35043 8.48002 2.67985 7.98602 3.09543 7.57008C3.51101 7.15413 4.00458 6.82443 4.5478 6.5999C5.09102 6.37536 5.6732 6.26042 6.26092 6.26167H6.27979C8.28027 6.27111 9.83724 7.055 9.83724 5.81778C9.83724 4.93944 10.026 4.59 10.3468 4.09889C9.65795 3.77778 8.87475 3.57944 8.0538 3.57944C7.55368 3.57944 7.15736 3.18278 7.15736 2.68222C7.15736 2.27611 7.42157 1.93611 7.78959 1.82278L7.15736 1.785C6.66668 1.785 6.26092 1.38833 6.26092 0.897222C6.26092 0.396667 6.66668 0 7.15736 0H8.0538C10.0354 0 11.7717 1.08611 12.7058 2.69167L12.9701 2.68222C13.64 2.68222 14.2628 2.89944 14.7724 3.25833L15.197 3.61722C17.2447 5.45889 16.9899 6.70555 16.9899 6.715C16.9899 7.92389 15.9896 8.91556 14.7724 8.91556L14.31 8.86833V8.94389C14.31 9.99222 13.8571 10.9272 13.1493 11.5883L16.2727 17H14.2062ZM14.31 4.47667C13.8099 4.47667 13.4136 4.87333 13.4136 5.36444C13.4136 5.865 13.8099 6.26167 14.31 6.26167C14.8007 6.26167 15.2064 5.865 15.2064 5.36444C15.2064 4.87333 14.8007 4.47667 14.31 4.47667Z" fill="white"/>
</svg>
